<svg width="612" height="612" viewBox="0 0 612 612" fill="none" xmlns="http://www.w3.org/2000/svg">
<g clip-path="url(#clip0_2005_1763)">
<g clip-path="url(#clip1_2005_1763)">
<rect width="684" height="684" transform="translate(-36)" fill="#0CA1D3"/>
<rect width="684" height="684" transform="translate(-36)" fill="white"/>
<path d="M136 85.5C136 132.72 97.4965 171 50 171C2.50351 171 -36 132.72 -36 85.5V0H136V85.5Z" fill="#FF4362"/>
<path d="M478 85.5C478 132.72 439.72 171 392.5 171C345.28 171 307 132.72 307 85.5V0H478V85.5Z" fill="#FF4362"/>
<path d="M307 85.5C307 132.72 268.72 171 221.5 171C174.28 171 136 132.72 136 85.5V0H307V85.5Z" fill="#51EE6E"/>
<circle cx="142" cy="307" r="80" fill="#FF4362"/>
<circle cx="464" cy="307" r="80" fill="#FF4362"/>
<path d="M220 444C220 430.193 231.193 419 245 419H366C379.807 419 391 430.193 391 444V647H220V444Z" fill="#51EE6E"/>
<path d="M366 419C379.807 419 391.348 430.419 387.412 443.653C386.58 446.449 385.606 449.205 384.492 451.911C380.195 462.345 373.897 471.825 365.958 479.811C358.018 487.797 348.593 494.132 338.219 498.454C327.846 502.776 316.728 505 305.5 505C294.272 505 283.154 502.776 272.781 498.454C262.407 494.132 252.982 487.797 245.042 479.811C237.103 471.825 230.805 462.345 226.508 451.911C225.394 449.205 224.42 446.449 223.588 443.653C219.652 430.419 231.193 419 245 419L305.5 419H366Z" fill="#FF4362"/>
<path d="M648 85.5C648 132.72 609.72 171 562.5 171C515.28 171 477 132.72 477 85.5V0H648V85.5Z" fill="#51EE6E"/>
</g>
</g>
<defs>
<clipPath id="clip0_2005_1763">
<rect width="612" height="612" rx="165" fill="white"/>
</clipPath>
<clipPath id="clip1_2005_1763">
<rect width="684" height="684" fill="white" transform="translate(-36)"/>
</clipPath>
</defs>
</svg>
