<svg width="1000" height="1000" viewBox="0 0 1000 1000" fill="none" xmlns="http://www.w3.org/2000/svg">
<g clip-path="url(#clip0_93_894)">
<rect width="1000" height="1000" rx="200" fill="white"/>
<path fill-rule="evenodd" clip-rule="evenodd" d="M125 0H0V125C0 194.036 55.9644 250 125 250C194.036 250 250 194.036 250 125V0H125Z" fill="#EA4335"/>
<path fill-rule="evenodd" clip-rule="evenodd" d="M625 0H500V125C500 194.036 555.964 250 625 250C694.036 250 750 194.036 750 125V0H625Z" fill="#34A853"/>
<path fill-rule="evenodd" clip-rule="evenodd" d="M375 0H250V125C250 194.036 305.964 250 375 250C444.036 250 500 194.036 500 125V0H375Z" fill="#FBBC05"/>
<path fill-rule="evenodd" clip-rule="evenodd" d="M875 0H750V125C750 194.036 805.964 250 875 250C944.036 250 1000 194.036 1000 125V0H875Z" fill="#4285F4"/>
<circle cx="225" cy="475" r="125" fill="#4285F4"/>
<circle cx="775" cy="475" r="125" fill="#4285F4"/>
<path d="M375 625C375 611.193 386.193 600 400 600H600C613.807 600 625 611.193 625 625V1000H375V625Z" fill="#F4B400"/>
<path d="M600 600C613.807 600 625.251 611.302 622.508 624.834C620.916 632.69 618.567 640.394 615.485 647.835C609.203 663.001 599.996 676.781 588.388 688.388C576.781 699.996 563.001 709.203 547.835 715.485C532.67 721.767 516.415 725 500 725C483.585 725 467.33 721.767 452.165 715.485C436.999 709.203 423.219 699.996 411.612 688.388C400.004 676.781 390.797 663.001 384.515 647.835C381.433 640.394 379.084 632.69 377.492 624.834C374.749 611.302 386.193 600 400 600L500 600H600Z" fill="#EA4335"/>
</g>
<defs>
<clipPath id="clip0_93_894">
<rect width="1000" height="1000" rx="200" fill="white"/>
</clipPath>
</defs>
</svg>
